<svg width="96" height="96" xmlns="http://www.w3.org/2000/svg" xmlns:xlink="http://www.w3.org/1999/xlink" xml:space="preserve" overflow="hidden"><defs><clipPath id="clip0"><rect x="801" y="137" width="96" height="96"/></clipPath></defs><g clip-path="url(#clip0)" transform="translate(-801 -137)"><path d="M816 164C817.818 163.993 819.403 162.761 819.858 161L825 161C826.657 161 828 162.343 828 164L828 175.442C828.444 175.306 828.894 175.188 829.352 175.095 829.536 174.52 829.752 173.956 830 173.406L830 164C829.997 161.24 827.76 159.003 825 159L819.857 159C819.301 156.866 817.12 155.587 814.986 156.143 812.852 156.699 811.573 158.88 812.129 161.014 812.588 162.775 814.18 164.003 816 164Z" fill="#FFFFFF"/><path d="M819.369 195 812 195C810.343 195 809 193.657 809 192L809 185.858C811.139 185.306 812.425 183.124 811.873 180.985 811.321 178.846 809.139 177.56 807 178.112 804.861 178.664 803.575 180.846 804.127 182.985 804.491 184.394 805.591 185.494 807 185.858L807 192C807.003 194.76 809.24 196.997 812 197L820.561 197C820.109 196.367 819.71 195.699 819.369 195Z" fill="#FFFFFF"/><path d="M846 151.858 846 164.071C846.672 164.121 847.34 164.213 848 164.346L848 151.858C850.139 151.306 851.425 149.124 850.873 146.985 850.321 144.846 848.139 143.56 846 144.112 843.861 144.664 842.575 146.846 843.127 148.985 843.491 150.394 844.591 151.494 846 151.858Z" fill="#FFFFFF"/><path d="M865 170C865 168.343 866.343 167 868 167L874 167C876.76 166.997 878.997 164.76 879 162L879 159.858C881.139 159.306 882.425 157.124 881.873 154.985 881.321 152.846 879.139 151.56 877 152.112 874.861 152.664 873.575 154.846 874.127 156.985 874.491 158.394 875.591 159.494 877 159.858L877 162C877 163.657 875.657 165 874 165L868 165C865.24 165.003 863.003 167.24 863 170L863 170.478C863.692 170.766 864.361 171.108 865 171.5Z" fill="#FFFFFF"/><path d="M853 217.142 853 203 851 203 851 217.142C848.861 217.694 847.575 219.876 848.127 222.015 848.679 224.154 850.861 225.44 853 224.888 855.139 224.336 856.425 222.154 855.873 220.015 855.509 218.606 854.409 217.506 853 217.142Z" fill="#FFFFFF"/><path d="M836 204C836 205.657 834.657 207 833 207L827 207C824.24 207.003 822.003 209.24 822 212L822 214.142C819.861 214.694 818.575 216.876 819.127 219.015 819.679 221.154 821.861 222.44 824 221.888 826.139 221.336 827.425 219.154 826.873 217.015 826.509 215.606 825.409 214.506 824 214.142L824 212C824 210.343 825.343 209 827 209L833 209C835.76 208.997 837.997 206.76 838 204L838 203 836 203Z" fill="#FFFFFF"/><path d="M890 181C888.182 181.007 886.597 182.239 886.142 184L877.65 184C878.072 184.632 878.434 185.301 878.733 186L886.141 186C886.697 188.134 888.878 189.413 891.012 188.857 893.146 188.301 894.425 186.12 893.869 183.986 893.41 182.225 891.819 180.998 890 181Z" fill="#FFFFFF"/><path d="M881 208C879.182 208.007 877.597 209.239 877.142 211L872 211C870.343 211 869 209.657 869 208L869 202.876C868.45 202.954 867.896 202.996 867.34 203L867 203 867 208C867.003 210.76 869.24 212.997 872 213L877.142 213C877.698 215.134 879.879 216.413 882.013 215.857 884.147 215.301 885.426 213.12 884.87 210.986 884.411 209.225 882.82 207.997 881 208Z" fill="#FFFFFF"/><path d="M823.208 182.241C820.703 185.521 820.254 189.931 822.047 193.649 823.842 197.376 827.55 199.807 831.684 199.968L831.748 199.968 834.689 199.998 867.339 199.998C872.453 200.052 876.643 195.949 876.696 190.835 876.746 186.115 873.238 182.113 868.552 181.544 868.034 178.655 866.39 176.09 863.982 174.412 862.09 173.089 859.835 172.381 857.526 172.386 856.81 172.385 856.096 172.452 855.393 172.586 852.948 169.071 848.932 166.983 844.65 167 843.629 167 842.611 167.119 841.617 167.354 836.521 168.53 832.637 172.662 831.777 177.82 828.404 177.94 825.261 179.561 823.208 182.241ZM832.162 179.813C832.643 179.813 833.122 179.851 833.597 179.925 833.602 179.926 833.607 179.923 833.608 179.918 833.608 179.917 833.608 179.917 833.608 179.916 833.608 179.862 833.608 179.673 833.608 179.602 833.767 174.646 837.242 170.418 842.073 169.302 846.993 168.133 852.082 170.435 854.452 174.902 854.456 174.905 854.46 174.905 854.464 174.902 857.277 173.924 860.388 174.352 862.833 176.052 865.217 177.705 866.664 180.4 866.724 183.3 866.724 183.333 866.724 183.452 866.724 183.488 866.724 183.494 866.724 183.497 866.735 183.496 866.934 183.473 867.135 183.463 867.335 183.468 871.348 183.421 874.639 186.636 874.686 190.648 874.733 194.661 871.518 197.952 867.505 197.999 867.449 198 867.392 198 867.335 197.999L834.709 197.999 831.769 197.969C828.374 197.835 825.33 195.841 823.85 192.783 822.388 189.741 822.755 186.136 824.8 183.45 826.551 181.154 829.274 179.808 832.162 179.813Z" fill="#FFFFFF"/></g></svg>